<?xml version="1.0" encoding="UTF-8"?>
<svg version="1.1" xmlns="http://www.w3.org/2000/svg" width="94" height="94">
<path d="M0 0 C1.16144531 0.00902344 2.32289062 0.01804687 3.51953125 0.02734375 C4.39996094 0.03894531 5.28039063 0.05054688 6.1875 0.0625 C6.435 1.09375 6.6825 2.125 6.9375 3.1875 C7.73124772 6.08065293 8.37387504 7.2982096 10.3125 9.75 C12.75606018 14.06695632 12.42092193 17.29361215 12.1328125 22.16015625 C12.19119019 25.25834391 12.871152 27.28184241 14.1875 30.0625 C17.4875 30.0625 20.7875 30.0625 24.1875 30.0625 C24.1875 30.3925 24.1875 30.7225 24.1875 31.0625 C23.40503906 31.05089844 22.62257813 31.03929688 21.81640625 31.02734375 C20.80449219 31.01832031 19.79257813 31.00929688 18.75 31 C17.74066406 30.98839844 16.73132813 30.97679688 15.69140625 30.96484375 C13.24728933 30.77637324 13.24728933 30.77637324 12.1875 32.0625 C13.01894531 32.02769531 13.85039063 31.99289063 14.70703125 31.95703125 C16.33705078 31.91642578 16.33705078 31.91642578 18 31.875 C19.07894531 31.84019531 20.15789062 31.80539063 21.26953125 31.76953125 C24.1875 32.0625 24.1875 32.0625 26.01171875 33.32421875 C28.20570547 36.56782038 28.34252712 39.78670579 28.375 43.625 C28.38917969 44.38941406 28.40335937 45.15382812 28.41796875 45.94140625 C28.1875 48.0625 28.1875 48.0625 26.1875 51.0625 C25.6689203 53.73643383 25.6689203 53.73643383 25.40625 56.75390625 C25.28636719 57.86314453 25.16648437 58.97238281 25.04296875 60.11523438 C24.80559797 62.45894475 24.56862009 64.80269494 24.33203125 67.14648438 C24.21214844 68.25443359 24.09226562 69.36238281 23.96875 70.50390625 C23.8150293 72.03059937 23.8150293 72.03059937 23.65820312 73.58813477 C23.1875 76.0625 23.1875 76.0625 21.1875 78.0625 C18.75854492 78.31646729 18.75854492 78.31646729 15.66796875 78.32128906 C13.936073 78.33074554 13.936073 78.33074554 12.16918945 78.34039307 C10.91710693 78.3363446 9.66502441 78.33229614 8.375 78.328125 C7.09520264 78.33003845 5.81540527 78.3319519 4.49682617 78.33392334 C1.78657207 78.33687382 -0.92355027 78.33257955 -3.63378906 78.32324219 C-7.11099231 78.31184753 -10.58788682 78.31840743 -14.06507874 78.33038712 C-17.37674404 78.33934425 -20.68832591 78.33307635 -24 78.328125 C-25.87812378 78.33419769 -25.87812378 78.33419769 -27.79418945 78.34039307 C-28.94878662 78.33408875 -30.10338379 78.32778442 -31.29296875 78.32128906 C-32.31285889 78.31969788 -33.33274902 78.31810669 -34.38354492 78.31646729 C-36.8125 78.0625 -36.8125 78.0625 -38.8125 76.0625 C-39.26912153 73.86958918 -39.632912 71.65664111 -39.9375 69.4375 C-40.10507812 68.24898438 -40.27265625 67.06046875 -40.4453125 65.8359375 C-40.56648438 64.92070313 -40.68765625 64.00546875 -40.8125 63.0625 C-41.4725 63.0625 -42.1325 63.0625 -42.8125 63.0625 C-42.88658587 58.96916095 -42.9410704 54.87608067 -42.97729492 50.78222656 C-42.99239358 49.38925378 -43.01287444 47.99632862 -43.03881836 46.60351562 C-43.07515122 44.60307115 -43.09061192 42.60228173 -43.10546875 40.6015625 C-43.1211792 39.39709473 -43.13688965 38.19262695 -43.15307617 36.95166016 C-43.04068604 35.9982373 -42.9282959 35.04481445 -42.8125 34.0625 C-39.28570901 31.71130601 -37.78370515 31.84806548 -33.625 31.9375 C-32.53832031 31.95554687 -31.45164062 31.97359375 -30.33203125 31.9921875 C-29.08486328 32.02699219 -29.08486328 32.02699219 -27.8125 32.0625 C-27.8439209 31.45253174 -27.8753418 30.84256348 -27.90771484 30.21411133 C-28.03288338 27.43478898 -28.11060435 24.65605934 -28.1875 21.875 C-28.23777344 20.91529297 -28.28804687 19.95558594 -28.33984375 18.96679688 C-28.48399645 12.02344174 -28.48399645 12.02344174 -26.62817383 9.36767578 C-23.70070475 6.85090663 -20.20989613 5.0013241 -16.75 3.3125 C-15.93402344 2.90515625 -15.11804688 2.4978125 -14.27734375 2.078125 C-9.49566873 0.10786271 -5.14065503 -0.05192581 0 0 Z " fill="#787F80" transform="translate(54.8125,7.9375)"/>
<path d="M0 0 C1.16144531 0.00902344 2.32289062 0.01804687 3.51953125 0.02734375 C4.39996094 0.03894531 5.28039063 0.05054688 6.1875 0.0625 C6.435 1.09375 6.6825 2.125 6.9375 3.1875 C7.73124772 6.08065293 8.37387504 7.2982096 10.3125 9.75 C12.75606018 14.06695632 12.42092193 17.29361215 12.1328125 22.16015625 C12.19119019 25.25834391 12.871152 27.28184241 14.1875 30.0625 C17.4875 30.0625 20.7875 30.0625 24.1875 30.0625 C24.1875 30.3925 24.1875 30.7225 24.1875 31.0625 C23.41664062 31.03929688 22.64578125 31.01609375 21.8515625 30.9921875 C20.34722656 30.96511719 20.34722656 30.96511719 18.8125 30.9375 C17.81476563 30.91429688 16.81703125 30.89109375 15.7890625 30.8671875 C13.02487827 30.79033152 13.02487827 30.79033152 11.1875 33.0625 C8.33035536 33.2501103 5.57184014 33.31807318 2.71484375 33.29296875 C1.87659561 33.29251053 1.03834747 33.29205231 0.17469788 33.2915802 C-1.59814875 33.28855724 -3.37099271 33.28066963 -5.14379883 33.26831055 C-7.86744522 33.25005065 -10.59075192 33.24780085 -13.31445312 33.24804688 C-15.03385713 33.24313192 -16.75325881 33.2373037 -18.47265625 33.23046875 C-19.70230858 33.22879951 -19.70230858 33.22879951 -20.95680237 33.22709656 C-26.69645199 33.17854801 -26.69645199 33.17854801 -27.8125 32.0625 C-28.17489123 28.6564463 -28.18409099 25.23522306 -28.25 21.8125 C-28.29576172 20.85730469 -28.34152344 19.90210937 -28.38867188 18.91796875 C-28.49870786 12.03832733 -28.49870786 12.03832733 -26.6237793 9.37207031 C-23.69629948 6.85354558 -20.21073121 5.00173171 -16.75 3.3125 C-15.93402344 2.90515625 -15.11804687 2.4978125 -14.27734375 2.078125 C-9.49566873 0.10786271 -5.14065503 -0.05192581 0 0 Z " fill="#F9D54A" transform="translate(54.8125,7.9375)"/>
<path d="M0 0 C1.16144531 0.00902344 2.32289062 0.01804687 3.51953125 0.02734375 C4.39996094 0.03894531 5.28039063 0.05054688 6.1875 0.0625 C6.435 1.09375 6.6825 2.125 6.9375 3.1875 C7.73968409 6.08815118 8.47347535 7.45781886 10.3125 10 C13.06810381 14.50081956 12.72811515 18.37775017 11.7265625 23.3515625 C11.25954445 25.26701335 10.72912981 27.16679565 10.1875 29.0625 C9.5275 29.0625 8.8675 29.0625 8.1875 29.0625 C8.06632812 28.14726563 7.94515625 27.23203125 7.8203125 26.2890625 C7.56894531 24.50628906 7.56894531 24.50628906 7.3125 22.6875 C7.15007813 21.50414063 6.98765625 20.32078125 6.8203125 19.1015625 C6.4572415 15.96683341 6.4572415 15.96683341 4.1875 14.0625 C1.697889 13.75141503 1.697889 13.75141503 -1.1875 13.796875 C-2.25484375 13.79429688 -3.3221875 13.79171875 -4.421875 13.7890625 C-5.54078125 13.79679687 -6.6596875 13.80453125 -7.8125 13.8125 C-9.49085937 13.80089844 -9.49085937 13.80089844 -11.203125 13.7890625 C-12.27046875 13.79164062 -13.3378125 13.79421875 -14.4375 13.796875 C-15.91089844 13.80025879 -15.91089844 13.80025879 -17.4140625 13.80371094 C-19.99688497 13.82877137 -19.99688497 13.82877137 -21.8125 16.0625 C-22.4962613 18.94967605 -22.4962613 18.94967605 -22.9375 22.1875 C-23.10507812 23.28320312 -23.27265625 24.37890625 -23.4453125 25.5078125 C-23.62707031 26.77238281 -23.62707031 26.77238281 -23.8125 28.0625 C-24.4725 28.0625 -25.1325 28.0625 -25.8125 28.0625 C-26.17423964 25.60506214 -26.52718169 23.14691207 -26.875 20.6875 C-26.97876953 19.98882813 -27.08253906 19.29015625 -27.18945312 18.5703125 C-27.92578125 13.2890625 -27.92578125 13.2890625 -26.8125 11.0625 C-19.87931502 2.78740825 -10.5063926 -0.10612518 0 0 Z " fill="#C03A11" transform="translate(54.8125,7.9375)"/>
<path d="M0 0 C0.99 0 1.98 0 3 0 C3.2475 0.86625 3.495 1.7325 3.75 2.625 C4.8504065 6.07637794 4.8504065 6.07637794 7.125 8.875 C10.25778378 14.09630631 9.37695873 18.8524736 8 24.5 C7.67 25.655 7.34 26.81 7 28 C6.34 28 5.68 28 5 28 C4.87882812 27.08476563 4.75765625 26.16953125 4.6328125 25.2265625 C4.46523438 24.03804687 4.29765625 22.84953125 4.125 21.625 C3.96257813 20.44164063 3.80015625 19.25828125 3.6328125 18.0390625 C3.2697415 14.90433341 3.2697415 14.90433341 1 13 C-2.24884028 12.79363878 -2.24884028 12.79363878 -6 12.9375 C-12.07137919 13.04267005 -17.97785645 12.79350597 -24 12 C-23.67 11.34 -23.34 10.68 -23 10 C-20.5234375 9.69140625 -20.5234375 9.69140625 -17.375 9.5625 C-11.37356144 9.15574376 -6.9252618 8.34020944 -2.125 4.5 C-0.78259341 2.87482651 -0.78259341 2.87482651 0 0 Z " fill="#93401B" transform="translate(58,9)"/>
<path d="M0 0 C1.8871875 0.061875 1.8871875 0.061875 3.8125 0.125 C2.68798273 3.0969385 1.58956209 5.45940687 -0.1875 8.125 C0.328125 8.5375 0.84375 8.95 1.375 9.375 C2.8125 11.125 2.8125 11.125 2.734375 13.09375 C1.8125 15.125 1.8125 15.125 -0.55078125 16.390625 C-2.01064453 16.87789062 -2.01064453 16.87789062 -3.5 17.375 C-4.94826172 17.87773438 -4.94826172 17.87773438 -6.42578125 18.390625 C-9.1875 19.125 -9.1875 19.125 -13.1875 19.125 C-11.85416667 16.45833333 -10.52083333 13.79166667 -9.1875 11.125 C-9.703125 10.526875 -10.21875 9.92875 -10.75 9.3125 C-11.4615625 8.2296875 -11.4615625 8.2296875 -12.1875 7.125 C-11.1875 4.125 -11.1875 4.125 -9.3125 3.0625 C-8.61125 2.753125 -7.91 2.44375 -7.1875 2.125 C-4.09861478 0.06574319 -3.47814073 -0.1140374 0 0 Z " fill="#FABE2F" transform="translate(85.1875,9.875)"/>
<path d="M0 0 C5.66104589 0.49658297 9.87674471 1.54510684 15 4 C15 7.76687864 14.76462683 8.91190305 13 12 C13.66 12.78375 14.32 13.5675 15 14.375 C17 17 17 17 17 19 C15.26982492 18.54548816 13.54090123 18.08621143 11.8125 17.625 C10.36810547 17.24214844 10.36810547 17.24214844 8.89453125 16.8515625 C6.17789793 16.05233704 3.60862825 15.0968638 1 14 C1.62759865 11.07120629 2.58622659 8.63904371 4 6 C3.34 5.38125 2.68 4.7625 2 4.125 C0 2 0 2 0 0 Z " fill="#FACE36" transform="translate(6,13)"/>
<path d="M0 0 C-0.99 0.33 -1.98 0.66 -3 1 C-3 1.99 -3 2.98 -3 4 C-4.98 4 -6.96 4 -9 4 C-9.16886719 4.64839844 -9.33773437 5.29679688 -9.51171875 5.96484375 C-10.00285156 6.63644531 -10.49398437 7.30804688 -11 8 C-13.71142696 8.38820652 -16.09780389 8.56008264 -18.8125 8.5625 C-23.95823583 8.59509742 -27.72587618 8.83429336 -32 12 C-29.86117999 6.79929028 -25.77916694 4.62931514 -21 2 C-14.09322436 -0.5324844 -7.29444577 -0.20015248 0 0 Z " fill="#D46D3F" transform="translate(61,8)"/>
<path d="M0 0 C2.0625 0.875 2.0625 0.875 4 2.875 C6.37104261 5.17419283 7.83481982 5.51636887 11.0625 5.875 C11.0625 6.535 11.0625 7.195 11.0625 7.875 C12.0525 8.205 13.0425 8.535 14.0625 8.875 C5.8125 8.875 -2.4375 8.875 -10.9375 8.875 C-9.9375 4.875 -9.9375 4.875 -7.5625 3.25 C-6.263125 2.569375 -6.263125 2.569375 -4.9375 1.875 C-1.9375 -0.125 -1.9375 -0.125 0 0 Z " fill="#FBF887" transform="translate(45.9375,32.125)"/>
<path d="M0 0 C1.43655854 -0.08131463 2.8744483 -0.13933559 4.3125 -0.1875 C5.51326172 -0.23970703 5.51326172 -0.23970703 6.73828125 -0.29296875 C9 0 9 0 10.73046875 1.26171875 C13.13274992 4.55099604 13.12086674 7.78106144 13.0625 11.75 C13.05347656 12.54921875 13.04445313 13.3484375 13.03515625 14.171875 C13.02355469 14.77515625 13.01195312 15.3784375 13 16 C13.66 16 14.32 16 15 16 C15 14.68 15 13.36 15 12 C15.99 12.33 16.98 12.66 18 13 C18.33 14.32 18.66 15.64 19 17 C22.3 17 25.6 17 29 17 C29 17.33 29 17.66 29 18 C28.22914062 17.97679688 27.45828125 17.95359375 26.6640625 17.9296875 C25.15972656 17.90261719 25.15972656 17.90261719 23.625 17.875 C22.62726563 17.85179688 21.62953125 17.82859375 20.6015625 17.8046875 C17.83737827 17.72783152 17.83737827 17.72783152 16 20 C12.875 20.125 12.875 20.125 10 20 C10.66 19.67 11.32 19.34 12 19 C11.63031173 16.72476405 11.22828028 14.45476593 10.8125 12.1875 C10.59207031 10.92292969 10.37164062 9.65835937 10.14453125 8.35546875 C9.30711127 4.8901195 9.30711127 4.8901195 6.63671875 3.17578125 C5.76660156 2.78777344 4.89648438 2.39976563 4 2 C3.236875 1.608125 2.47375 1.21625 1.6875 0.8125 C1.130625 0.544375 0.57375 0.27625 0 0 Z " fill="#E59D36" transform="translate(50,21)"/>
<path d="M0 0 C0.69222656 0.06703125 1.38445313 0.1340625 2.09765625 0.203125 C3.9375 0.75 3.9375 0.75 5.9375 3.75 C-2.83637981 4.45757095 -11.3103303 5.11752652 -20.0625 3.75 C-19.7325 3.09 -19.4025 2.43 -19.0625 1.75 C-16.4453125 1.37109375 -16.4453125 1.37109375 -13.1875 1.1875 C-8.65418705 0.91987068 -4.47999584 -0.50242944 0 0 Z " fill="#9A3B16" transform="translate(54.0625,17.25)"/>
<path d="M0 0 C3.3 0 6.6 0 10 0 C10 2.31 10 4.62 10 7 C6.7 7 3.4 7 0 7 C0 4.69 0 2.38 0 0 Z " fill="#9BA5A8" transform="translate(42,61)"/>
<path d="M0 0 C18.81 0 37.62 0 57 0 C57 0.33 57 0.66 57 1 C38.19 1 19.38 1 0 1 C0 0.67 0 0.34 0 0 Z " fill="#636667" transform="translate(18,87)"/>
<path d="M0 0 C1.75 1 1.75 1 4.75 5 C-1.19 5.495 -1.19 5.495 -7.25 6 C-7.25 6.66 -7.25 7.32 -7.25 8 C-8.57 8 -9.89 8 -11.25 8 C-10.21795898 4.78920572 -8.66251338 3.40059709 -5.875 1.6875 C-2.25 0 -2.25 0 0 0 Z " fill="#FEF26B" transform="translate(46.25,32)"/>
<path d="M0 0 C0.79019531 0.00902344 1.58039062 0.01804687 2.39453125 0.02734375 C3.28205078 0.04474609 3.28205078 0.04474609 4.1875 0.0625 C1.5445253 2.7054747 -0.00057731 2.37804606 -3.6875 2.6875 C-11.62510808 3.74938737 -16.54222033 7.20444548 -22.8125 12.0625 C-22.8125 9.0625 -22.8125 9.0625 -21.6171875 7.5390625 C-19.50510482 5.81099485 -17.38270273 4.64895303 -14.9375 3.4375 C-14.09445313 3.01210937 -13.25140625 2.58671875 -12.3828125 2.1484375 C-8.23966157 0.39798772 -4.47025799 -0.06672027 0 0 Z " fill="#EACDC5" transform="translate(52.8125,7.9375)"/>
<path d="M0 0 C-0.15339844 0.51046875 -0.30679688 1.0209375 -0.46484375 1.546875 C-1.16905403 4.7749338 -1.34888204 7.95418001 -1.5625 11.25 C-1.64628906 12.51328125 -1.73007812 13.7765625 -1.81640625 15.078125 C-1.87699219 16.04234375 -1.93757813 17.0065625 -2 18 C-2.66 18 -3.32 18 -4 18 C-4.36173964 15.54256214 -4.71468169 13.08441207 -5.0625 10.625 C-5.16626953 9.92632812 -5.27003906 9.22765625 -5.37695312 8.5078125 C-6.11328125 3.2265625 -6.11328125 3.2265625 -5 1 C-2 0 -2 0 0 0 Z " fill="#CF6A31" transform="translate(33,18)"/>
<path d="M0 0 C6.41688675 -0.10349817 12.62694402 0.25492456 19 1 C19 1.66 19 2.32 19 3 C16.6291379 3.79028737 15.21759777 4.04835506 12.75 3.5 C9.57866868 2.92339431 6.89030556 3.12073901 3.6875 3.4375 C2.61886719 3.53933594 1.55023438 3.64117188 0.44921875 3.74609375 C-0.35902344 3.82988281 -1.16726562 3.91367187 -2 4 C-1.34 2.68 -0.68 1.36 0 0 Z " fill="#EBCA57" transform="translate(35,21)"/>
<path d="M0 0 C1.43655854 -0.08131463 2.8744483 -0.13933559 4.3125 -0.1875 C5.51326172 -0.23970703 5.51326172 -0.23970703 6.73828125 -0.29296875 C9 0 9 0 10.75 1.1875 C12.38344378 3.55599348 12.50209901 5.3323248 12.6875 8.1875 C12.78611328 9.53908203 12.78611328 9.53908203 12.88671875 10.91796875 C12.92410156 11.60503906 12.96148437 12.29210938 13 13 C10.67223924 10.90314312 10.04113346 10.17949144 9.3125 7 C8.33200227 3.93249729 8.33200227 3.93249729 6.09765625 2.9453125 C4.08015203 2.20071516 2.07817817 1.55095886 0 1 C0 0.67 0 0.34 0 0 Z " fill="#D09130" transform="translate(50,21)"/>
<path d="M0 0 C1.8871875 0.061875 1.8871875 0.061875 3.8125 0.125 C3.4825 1.115 3.1525 2.105 2.8125 3.125 C0.26551774 4.00540196 -2.13941274 4.7009039 -4.75 5.3125 C-5.46091797 5.48974609 -6.17183594 5.66699219 -6.90429688 5.84960938 C-8.66255269 6.28622323 -10.42470155 6.70710434 -12.1875 7.125 C-11.1875 4.125 -11.1875 4.125 -9.3125 3.0625 C-8.61125 2.753125 -7.91 2.44375 -7.1875 2.125 C-4.09861478 0.06574319 -3.47814073 -0.1140374 0 0 Z " fill="#FDF06E" transform="translate(85.1875,9.875)"/>
<path d="M0 0 C-0.99 0 -1.98 0 -3 0 C-3 0.99 -3 1.98 -3 3 C-4.98 3 -6.96 3 -9 3 C-9.66 4.32 -10.32 5.64 -11 7 C-12.65 7 -14.3 7 -16 7 C-12.01232717 2.52897289 -6.42446595 -2.82676502 0 0 Z " fill="#C56343" transform="translate(61,9)"/>
<path d="M0 0 C4.62 0 9.24 0 14 0 C14 0.33 14 0.66 14 1 C9.71 1 5.42 1 1 1 C1 2.65 1 4.3 1 6 C0.34 6.66 -0.32 7.32 -1 8 C-1.69748583 9.31747324 -2.36959957 10.64914193 -3 12 C-3.38468294 6.61443879 -2.64366459 5.28732917 0 0 Z " fill="#C7511A" transform="translate(34,16)"/>
<path d="M0 0 C3.35435922 1.38801071 5.11290303 2.88629 7 6 C7 6.99 7 7.98 7 9 C4.13998967 7.71792641 1.92960588 6.50848764 0 4 C0 2.68 0 1.36 0 0 Z " fill="#B67E76" transform="translate(59,13)"/>
<path d="M0 0 C0.66 0.33 1.32 0.66 2 1 C1.34 3.31 0.68 5.62 0 8 C-2.31 8 -4.62 8 -7 8 C-5.68 7.67 -4.36 7.34 -3 7 C-2.814375 5.5459375 -2.814375 5.5459375 -2.625 4.0625 C-2.41875 3.051875 -2.2125 2.04125 -2 1 C-1.34 0.67 -0.68 0.34 0 0 Z " fill="#FADD57" transform="translate(35,33)"/>
<path d="M0 0 C0.99 0 1.98 0 3 0 C3.33 1.32 3.66 2.64 4 4 C3.34 4 2.68 4 2 4 C1.34 5.32 0.68 6.64 0 8 C-1.32 7.34 -2.64 6.68 -4 6 C-3.525625 5.566875 -3.05125 5.13375 -2.5625 4.6875 C-0.76313043 2.97690387 -0.76313043 2.97690387 0 0 Z " fill="#9C3F2F" transform="translate(58,9)"/>
<path d="M0 0 C0.33 1.32 0.66 2.64 1 4 C1.66 4 2.32 4 3 4 C3 5.32 3 6.64 3 8 C1.68 8 0.36 8 -1 8 C-1.04241723 5.66705225 -1.04092937 3.33297433 -1 1 C-0.67 0.67 -0.34 0.34 0 0 Z " fill="#F8B93C" transform="translate(28,32)"/>
<path d="M0 0 C0.99 0.33 1.98 0.66 3 1 C3.33 2.32 3.66 3.64 4 5 C7.3 5 10.6 5 14 5 C14 5.33 14 5.66 14 6 C10.37 6 6.74 6 3 6 C3 5.34 3 4.68 3 4 C2.01 3.67 1.02 3.34 0 3 C0 2.01 0 1.02 0 0 Z " fill="#D2A483" transform="translate(65,33)"/>
<path d="M0 0 C0 0.33 0 0.66 0 1 C-1.670625 1.433125 -1.670625 1.433125 -3.375 1.875 C-7.00291092 2.69241329 -7.00291092 2.69241329 -9 5 C-11.125 4.625 -11.125 4.625 -13 4 C-8.61350163 0.52105302 -5.57581513 -0.123907 0 0 Z " fill="#DE9779" transform="translate(51,10)"/>
<path d="M0 0 C1.65 0.33 3.3 0.66 5 1 C4.01 1.495 4.01 1.495 3 2 C2.67 2.99 2.34 3.98 2 5 C0.68 4.67 -0.64 4.34 -2 4 C-1.34 2.68 -0.68 1.36 0 0 Z " fill="#B84527" transform="translate(52,11)"/>
<path d="M0 0 C2.62187494 1.04874998 3.79371361 1.64931313 5.25 4.125 C5.4975 4.74375 5.745 5.3625 6 6 C3.83125748 5.49396008 2.00032373 5.00016187 0 4 C0 2.68 0 1.36 0 0 Z " fill="#FDE577" transform="translate(16,24)"/>
<path d="M0 0 C-0.57344937 2.86724686 -0.8614515 3.8614515 -3 6 C-5.125 5.625 -5.125 5.625 -7 5 C-2.25 0 -2.25 0 0 0 Z " fill="#FEEF79" transform="translate(80,21)"/>
<path d="M0 0 C2.35171131 0.59861742 4.6859378 1.26924352 7 2 C7.33 2.66 7.66 3.32 8 4 C4.7 3.67 1.4 3.34 -2 3 C-1.34 2.01 -0.68 1.02 0 0 Z " fill="#80250D" transform="translate(52,17)"/>
<path d="M0 0 C0.7425 0.0825 1.485 0.165 2.25 0.25 C0.27579865 2.77259061 -0.71745642 3.2429808 -3.9375 3.9375 C-5.3296875 4.0921875 -5.3296875 4.0921875 -6.75 4.25 C-3.42692308 0.31153846 -3.42692308 0.31153846 0 0 Z " fill="#EE9323" transform="translate(85.75,22.75)"/>
<path d="M0 0 C5.625 -0.25 5.625 -0.25 9 2 C8.67 2.99 8.34 3.98 8 5 C7.34 4.34 6.68 3.68 6 3 C4.01643517 2.28591666 2.01684563 1.61382258 0 1 C0 0.67 0 0.34 0 0 Z " fill="#972F12" transform="translate(52,16)"/>
<path d="M0 0 C1.32 0 2.64 0 4 0 C4.33 0.99 4.66 1.98 5 3 C2.69 3.33 0.38 3.66 -2 4 C-1.34 2.68 -0.68 1.36 0 0 Z " fill="#F3D35C" transform="translate(35,21)"/>
<path d="M0 0 C0.33 0 0.66 0 1 0 C1 1.98 1 3.96 1 6 C-2.63 6 -6.26 6 -10 6 C-10 5.67 -10 5.34 -10 5 C-6.7 5 -3.4 5 0 5 C0 3.35 0 1.7 0 0 Z " fill="#E2D6AF" transform="translate(25,33)"/>
<path d="M0 0 C0.33 0 0.66 0 1 0 C1 3.96 1 7.92 1 12 C0.67 12 0.34 12 0 12 C0 8.04 0 4.08 0 0 Z " fill="#D26329" transform="translate(26,21)"/>
<path d="M0 0 C0.33 0 0.66 0 1 0 C1 3.3 1 6.6 1 10 C0.67 10 0.34 10 0 10 C0 6.7 0 3.4 0 0 Z " fill="#787D7E" transform="translate(81,59)"/>
<path d="M0 0 C3.3 0 6.6 0 10 0 C10 0.33 10 0.66 10 1 C6.7 1 3.4 1 0 1 C0 0.67 0 0.34 0 0 Z " fill="#D98C86" transform="translate(50,6)"/>
<path d="M0 0 C0.33 0 0.66 0 1 0 C1 2.97 1 5.94 1 9 C0.67 9 0.34 9 0 9 C0 6.03 0 3.06 0 0 Z " fill="#73797A" transform="translate(80,69)"/>
<path d="M0 0 C0.33 0 0.66 0 1 0 C1 2.97 1 5.94 1 9 C0.67 9 0.34 9 0 9 C0 6.03 0 3.06 0 0 Z " fill="#6D7171" transform="translate(13,71)"/>
<path d="M0 0 C0.33 0 0.66 0 1 0 C1 2.97 1 5.94 1 9 C0.67 9 0.34 9 0 9 C0 6.03 0 3.06 0 0 Z " fill="#757D7C" transform="translate(11,50)"/>
<path d="M0 0 C0.33 0 0.66 0 1 0 C1 2.31 1 4.62 1 7 C0.67 7 0.34 7 0 7 C0 4.69 0 2.38 0 0 Z " fill="#79807D" transform="translate(10,43)"/>
<path d="M0 0 C0.33 0 0.66 0 1 0 C1 1.65 1 3.3 1 5 C0.67 5 0.34 5 0 5 C0 3.35 0 1.7 0 0 Z " fill="#5F6364" transform="translate(79,79)"/>
<path d="M0 0 C1.65 0 3.3 0 5 0 C5 0.33 5 0.66 5 1 C3.35 1 1.7 1 0 1 C0 0.67 0 0.34 0 0 Z " fill="#EBC7C2" transform="translate(43,7)"/>
<path d="M0 0 C1 4 1 4 1 4 Z " fill="#466369" transform="translate(14,80)"/>
<path d="M0 0 C1 4 1 4 1 4 Z " fill="#838A8C" transform="translate(83,43)"/>
<path d="M0 0 C4 1 4 1 4 1 Z " fill="#FAC348" transform="translate(72,30)"/>
<path d="M0 0 C1 4 1 4 1 4 Z " fill="#89271B" transform="translate(68,22)"/>
<path d="M0 0 C3 1 3 1 3 1 Z " fill="#FBAB21" transform="translate(18,32)"/>
<path d="M0 0 C3 1 3 1 3 1 Z " fill="#F7AD18" transform="translate(15,31)"/>
<path d="" fill="#AE4D05" transform="translate(0,0)"/>
<path d="M0 0 C3 1 3 1 3 1 Z " fill="#FC9B14" transform="translate(76,29)"/>
<path d="M0 0 C3 1 3 1 3 1 Z " fill="#EEA318" transform="translate(79,28)"/>
<path d="" fill="#FCD23D" transform="translate(0,0)"/>
<path d="M0 0 C3 1 3 1 3 1 Z " fill="#FEFD65" transform="translate(17,14)"/>
<path d="M0 0 C3 1 3 1 3 1 Z " fill="#FEFC86" transform="translate(14,13)"/>
<path d="M0 0 C3 1 3 1 3 1 Z " fill="#FEFD72" transform="translate(11,12)"/>
<path d="M0 0 C3 1 3 1 3 1 Z " fill="#FEFD70" transform="translate(7,11)"/>
<path d="M0 0 C3 1 3 1 3 1 Z " fill="#FEF737" transform="translate(84,9)"/>
<path d="M0 0 C3 1 3 1 3 1 Z " fill="#EFB0A3" transform="translate(40,8)"/>
<path d="M0 0 C2 1 2 1 2 1 Z " fill="#A6B5B5" transform="translate(13,39)"/>
<path d="" fill="#EC813B" transform="translate(0,0)"/>
<path d="M0 0 C2 1 2 1 2 1 Z " fill="#DC7A1A" transform="translate(13,30)"/>
<path d="M0 0 C2 1 2 1 2 1 Z " fill="#DB9215" transform="translate(10,29)"/>
<path d="" fill="#F9CA6D" transform="translate(0,0)"/>
<path d="M0 0 C2 1 2 1 2 1 Z " fill="#ED7218" transform="translate(82,27)"/>
<path d="M0 0 C2 1 2 1 2 1 Z " fill="#F7B30B" transform="translate(85,26)"/>
<path d="" fill="#FFEF3E" transform="translate(0,0)"/>
<path d="" fill="#F4B27B" transform="translate(0,0)"/>
<path d="" fill="#FAC481" transform="translate(0,0)"/>
<path d="" fill="#BE7061" transform="translate(0,0)"/>
<path d="" fill="#FED52D" transform="translate(0,0)"/>
<path d="" fill="#FFB631" transform="translate(0,0)"/>
<path d="" fill="#A67C73" transform="translate(0,0)"/>
<path d="" fill="#FFEF51" transform="translate(0,0)"/>
<path d="M0 0 C2 1 2 1 2 1 Z " fill="#FEFA48" transform="translate(75,12)"/>
<path d="M0 0 C2 1 2 1 2 1 Z " fill="#F2DED7" transform="translate(33,12)"/>
<path d="" fill="#A73426" transform="translate(0,0)"/>
<path d="" fill="#6C716E" transform="translate(0,0)"/>
<path d="" fill="#616362" transform="translate(0,0)"/>
<path d="" fill="#737875" transform="translate(0,0)"/>
<path d="" fill="#72797E" transform="translate(0,0)"/>
<path d="" fill="#717474" transform="translate(0,0)"/>
<path d="" fill="#6D716E" transform="translate(0,0)"/>
<path d="" fill="#9AB5B3" transform="translate(0,0)"/>
<path d="" fill="#CBD3D6" transform="translate(0,0)"/>
<path d="" fill="#C0C7C9" transform="translate(0,0)"/>
<path d="" fill="#949CA3" transform="translate(0,0)"/>
<path d="" fill="#D5441C" transform="translate(0,0)"/>
<path d="" fill="#F4DF5A" transform="translate(0,0)"/>
<path d="" fill="#FDF6AD" transform="translate(0,0)"/>
<path d="" fill="#FC8D03" transform="translate(0,0)"/>
<path d="" fill="#FEF5BA" transform="translate(0,0)"/>
<path d="" fill="#FDFAB8" transform="translate(0,0)"/>
<path d="" fill="#FEF7AA" transform="translate(0,0)"/>
<path d="" fill="#FFDC00" transform="translate(0,0)"/>
<path d="" fill="#FDFCDE" transform="translate(0,0)"/>
<path d="" fill="#FEF9AA" transform="translate(0,0)"/>
<path d="" fill="#FFFFCD" transform="translate(0,0)"/>
<path d="" fill="#FEFFD1" transform="translate(0,0)"/>
<path d="" fill="#FFFF74" transform="translate(0,0)"/>
<path d="" fill="#FA8543" transform="translate(0,0)"/>
<path d="" fill="#FEFF31" transform="translate(0,0)"/>
<path d="" fill="#FA9D34" transform="translate(0,0)"/>
<path d="" fill="#FFFF67" transform="translate(0,0)"/>
<path d="" fill="#E7D08C" transform="translate(0,0)"/>
<path d="" fill="#E98C47" transform="translate(0,0)"/>
<path d="" fill="#FD8034" transform="translate(0,0)"/>
<path d="" fill="#FFEA83" transform="translate(0,0)"/>
<path d="" fill="#F9963E" transform="translate(0,0)"/>
<path d="" fill="#FDC96F" transform="translate(0,0)"/>
<path d="" fill="#FEA010" transform="translate(0,0)"/>
<path d="" fill="#FDA84F" transform="translate(0,0)"/>
<path d="" fill="#FE9D18" transform="translate(0,0)"/>
<path d="" fill="#E8B9B0" transform="translate(0,0)"/>
<path d="" fill="#FEB205" transform="translate(0,0)"/>
<path d="" fill="#FD7B1A" transform="translate(0,0)"/>
<path d="" fill="#FEDC5A" transform="translate(0,0)"/>
<path d="" fill="#DBBFC0" transform="translate(0,0)"/>
<path d="" fill="#FFE0D2" transform="translate(0,0)"/>
<path d="" fill="#FEBF14" transform="translate(0,0)"/>
<path d="" fill="#FD9219" transform="translate(0,0)"/>
<path d="" fill="#D59B99" transform="translate(0,0)"/>
<path d="" fill="#FEDECE" transform="translate(0,0)"/>
<path d="" fill="#FEF324" transform="translate(0,0)"/>
<path d="" fill="#FDB323" transform="translate(0,0)"/>
<path d="" fill="#FD9718" transform="translate(0,0)"/>
<path d="" fill="#C39A9D" transform="translate(0,0)"/>
<path d="" fill="#E8D5B7" transform="translate(0,0)"/>
<path d="" fill="#FDA614" transform="translate(0,0)"/>
<path d="" fill="#FEDFD4" transform="translate(0,0)"/>
<path d="" fill="#C4A9AD" transform="translate(0,0)"/>
<path d="" fill="#F2D5CB" transform="translate(0,0)"/>
<path d="" fill="#FCC651" transform="translate(0,0)"/>
<path d="" fill="#DEC8BD" transform="translate(0,0)"/>
<path d="" fill="#F7B9D4" transform="translate(0,0)"/>
</svg>
